<?xml version="1.0" standalone="no"?>
<!DOCTYPE svg PUBLIC "-//W3C//DTD SVG 20010904//EN"
 "http://www.w3.org/TR/2001/REC-SVG-20010904/DTD/svg10.dtd">
<svg version="1.0" xmlns="http://www.w3.org/2000/svg"
 width="512.000000pt" height="512.000000pt" viewBox="0 0 512.000000 512.000000"
 preserveAspectRatio="xMidYMid meet">

<g transform="translate(0.000000,512.000000) scale(0.100000,-0.100000)"
fill="white" stroke="none">
<path d="M2245 3593 c-414 -20 -796 -70 -1092 -143 -198 -49 -306 -86 -443
-153 -86 -41 -118 -63 -176 -121 -49 -50 -74 -83 -82 -112 -8 -28 -12 -130
-12 -309 0 -300 -4 -324 -61 -389 -44 -50 -91 -75 -157 -84 -53 -8 -67 -26
-58 -74 11 -60 60 -123 137 -177 43 -31 79 -64 88 -84 66 -136 269 -212 427
-159 75 26 126 16 180 -35 86 -81 224 -121 360 -104 45 6 99 17 119 26 59 24
86 20 118 -20 15 -19 51 -47 80 -62 45 -24 67 -28 164 -31 122 -4 178 7 262
56 37 21 56 25 110 23 59 -2 68 -5 104 -38 71 -63 117 -78 247 -78 131 0 176
14 249 81 36 31 51 38 97 42 47 4 63 0 122 -31 91 -47 156 -61 266 -55 109 6
167 28 223 86 41 42 77 59 96 44 22 -17 81 -33 156 -42 137 -18 267 19 356
101 58 54 111 64 190 37 87 -29 179 -23 265 19 80 39 100 56 148 126 21 31 65
76 100 101 67 50 118 118 128 174 9 48 -5 66 -58 74 -66 9 -113 34 -157 84
-57 65 -61 89 -61 389 0 179 -4 281 -12 309 -8 29 -33 62 -82 112 -57 57 -91
80 -176 122 -310 153 -836 256 -1480 292 -167 9 -531 11 -685 3z m935 -98
c535 -47 927 -135 1198 -267 80 -39 180 -118 205 -162 8 -15 14 -113 17 -326
l5 -305 28 -57 c41 -83 100 -132 216 -175 l24 -9 -33 -37 c-18 -21 -45 -46
-60 -57 l-28 -20 -45 84 c-67 126 -114 194 -182 261 -94 95 -176 121 -253 81
-93 -48 -116 -272 -57 -553 l13 -63 -36 -10 c-20 -5 -37 -8 -39 -7 -1 2 -16
55 -32 118 -51 196 -117 327 -190 377 -167 111 -292 -80 -326 -500 -6 -75 -10
-88 -27 -94 -11 -3 -21 -4 -22 -2 -1 1 -16 59 -33 128 -52 216 -122 348 -208
397 -71 40 -134 27 -193 -42 -42 -47 -64 -92 -96 -195 -22 -69 -66 -284 -66
-322 0 -5 -19 -8 -42 -6 l-43 3 -8 70 c-27 243 -126 456 -234 501 -78 33 -171
8 -233 -62 -70 -80 -139 -278 -156 -442 l-7 -72 -42 0 -42 0 -12 99 c-36 300
-139 491 -263 491 -116 -1 -215 -150 -281 -420 -17 -69 -32 -127 -33 -128 -1
-2 -11 -1 -21 2 -17 5 -21 24 -32 143 -29 316 -109 483 -231 483 -132 0 -226
-156 -304 -503 -6 -26 -9 -27 -44 -21 -20 4 -38 7 -39 9 -2 1 4 33 12 71 47
230 44 418 -9 499 -25 38 -75 65 -121 65 -114 -1 -232 -117 -360 -353 l-47
-87 -29 20 c-28 20 -89 89 -89 100 0 4 24 14 54 23 71 23 146 90 183 165 l28
57 5 300 c3 209 9 306 17 321 27 46 123 121 214 165 299 148 838 252 1459 283
172 8 803 -4 970 -19z m-2345 -1095 c29 -51 28 -250 -4 -412 l-23 -117 -35
-12 c-88 -29 -235 15 -289 87 -47 61 -49 85 -13 156 108 214 226 343 309 336
27 -2 38 -10 55 -38z m3563 26 c70 -37 163 -158 242 -316 l42 -82 -24 -46
c-27 -53 -95 -105 -161 -123 -46 -12 -163 -7 -178 8 -16 16 -48 202 -55 314
-8 123 -1 182 26 227 22 36 61 43 108 18z m-3087 -116 c28 -15 66 -98 89 -191
25 -105 48 -355 34 -369 -6 -6 -38 -15 -72 -21 -75 -13 -160 -1 -235 35 -91
42 -89 38 -67 138 25 115 75 262 107 318 50 85 97 115 144 90z m2574 -6 c58
-38 124 -186 172 -383 28 -119 32 -110 -58 -156 -70 -36 -162 -50 -239 -37
-35 7 -68 16 -74 22 -14 14 9 264 34 369 22 90 60 174 87 190 26 15 50 13 78
-5z m-1961 -85 c65 -51 111 -196 150 -477 l6 -43 -55 -25 c-111 -51 -282 -42
-351 18 -38 33 -38 28 2 192 54 219 132 354 205 356 9 0 28 -9 43 -21z m686 6
c33 -17 68 -60 100 -124 26 -53 75 -240 85 -328 l7 -61 -41 -41 c-96 -96 -306
-96 -403 1 -40 40 -40 41 -33 97 10 88 51 252 79 315 33 74 62 114 100 137 37
23 67 24 106 4z m670 -2 c35 -24 46 -39 85 -115 37 -71 73 -186 99 -309 l15
-74 -27 -28 c-56 -58 -231 -75 -342 -32 -72 28 -73 30 -60 126 26 198 75 352
131 411 40 42 62 47 99 21z"/>
<path d="M2150 3430 c-434 -26 -831 -86 -1070 -162 -335 -107 -443 -254 -289
-392 338 -304 1944 -417 2984 -210 530 106 746 285 554 458 -159 143 -569 243
-1209 296 -169 14 -790 21 -970 10z m750 -80 c52 -3 90 -7 84 -8 -5 -1 -498
-78 -1094 -171 -597 -93 -1086 -168 -1088 -166 -2 2 3 16 12 33 76 148 691
285 1416 315 139 6 580 4 670 -3z m580 -45 c138 -17 286 -45 400 -76 119 -32
266 -83 250 -86 -86 -17 -2530 -416 -2575 -420 -138 -12 -588 107 -679 180
l-30 24 175 27 c96 15 656 103 1244 196 589 92 1075 168 1080 169 6 1 67 -6
135 -14z m814 -256 c35 -42 33 -71 -9 -113 -123 -123 -569 -229 -1170 -278
-310 -25 -1311 -8 -1278 22 4 4 276 51 603 104 327 53 865 141 1195 195 330
55 607 100 617 100 9 1 28 -13 42 -30z"/>
<path d="M650 2779 c-7 -11 -9 -27 -6 -35 8 -22 171 -95 306 -139 280 -90 619
-150 1065 -187 197 -16 893 -16 1090 0 589 50 1035 146 1302 280 69 35 77 44
68 72 -10 32 -40 33 -102 2 -257 -129 -719 -228 -1278 -274 -210 -17 -860 -17
-1070 0 -556 45 -1022 145 -1277 273 -68 34 -84 36 -98 8z"/>
</g>
</svg>
