<?xml version="1.0" standalone="no"?>
<!DOCTYPE svg PUBLIC "-//W3C//DTD SVG 20010904//EN"
 "http://www.w3.org/TR/2001/REC-SVG-20010904/DTD/svg10.dtd">
<svg version="1.0" xmlns="http://www.w3.org/2000/svg"
 width="512.000000pt" height="512.000000pt" viewBox="0 0 512.000000 512.000000"
 preserveAspectRatio="xMidYMid meet">

<g transform="translate(0.000000,512.000000) scale(0.100000,-0.100000)"
fill="red" stroke="none">
<path d="M1360 4820 l0 -300 150 0 150 0 0 -150 0 -150 150 0 150 0 0 -150 0
-150 300 0 300 0 0 150 0 150 -300 0 -300 0 0 150 0 150 150 0 150 0 0 150 0
150 -150 0 -150 0 0 -150 0 -150 -150 0 -150 0 0 300 0 300 -150 0 -150 0 0
-300z"/>
<path d="M3160 4970 l0 -150 -150 0 -150 0 0 -1505 0 -1505 -150 0 -150 0 0
-150 0 -150 -150 0 -150 0 0 -455 0 -455 150 0 150 0 0 -150 0 -150 150 0 150
0 0 -150 0 -150 450 0 450 0 0 150 0 150 -150 0 -150 0 0 150 0 150 -145 0
-144 0 -3 -148 -3 -147 -152 -3 -153 -3 0 151 0 150 -150 0 -150 0 0 455 0
455 150 0 150 0 0 150 0 150 149 0 150 0 7 48 c4 26 4 703 1 1505 l-7 1457
150 0 150 0 0 -1505 0 -1505 150 0 150 0 0 1505 0 1505 -150 0 -150 0 0 150 0
150 -150 0 -150 0 0 -150z"/>
<path d="M750 4670 l0 -150 150 0 150 0 0 -150 0 -150 -300 0 -300 0 0 -150 0
-150 300 0 300 0 0 150 0 150 155 0 155 0 0 -150 0 -150 150 0 150 0 0 -155 0
-155 -150 0 -150 0 0 -300 0 -300 150 0 150 0 0 300 0 300 150 0 150 0 0 -150
0 -150 150 0 150 0 0 150 0 150 -150 0 -149 0 -3 153 -3 152 -147 3 -147 3 -3
147 -3 147 -147 3 -147 3 -3 147 -3 147 -152 3 -153 3 0 149 0 150 -150 0
-150 0 0 -150z"/>
<path d="M4070 4665 l0 -145 145 0 145 0 0 145 0 145 -145 0 -145 0 0 -145z"/>
<path d="M4070 4065 l0 -145 295 0 295 0 0 145 0 145 -295 0 -295 0 0 -145z"/>
<path d="M1054 3907 c-2 -7 -3 -76 -2 -152 l3 -140 150 0 150 0 0 150 0 150
-148 3 c-115 2 -149 0 -153 -11z"/>
<path d="M752 3463 l3 -148 148 -3 147 -3 0 151 0 150 -150 0 -151 0 3 -147z"/>
<path d="M4070 3465 l0 -145 145 0 145 0 0 145 0 145 -145 0 -145 0 0 -145z"/>
<path d="M4070 2860 l0 -150 295 0 295 0 0 150 0 150 -295 0 -295 0 0 -150z"/>
<path d="M3770 1660 l0 -150 150 0 150 0 0 -155 0 -155 -150 0 -150 0 0 -145
0 -145 150 0 150 0 0 -155 0 -155 -150 0 -150 0 0 -150 0 -150 150 0 150 0 0
150 0 150 150 0 150 0 -2 452 -3 453 -147 3 -147 3 -3 147 -3 147 -147 3 -148
3 0 -151z"/>
<path d="M3470 1355 l0 -145 145 0 145 0 0 145 0 145 -145 0 -145 0 0 -145z"/>
<path d="M3470 755 l0 -145 145 0 145 0 0 145 0 145 -145 0 -145 0 0 -145z"/>
</g>
</svg>
