<?xml version="1.0" standalone="no"?>
<!DOCTYPE svg PUBLIC "-//W3C//DTD SVG 20010904//EN"
 "http://www.w3.org/TR/2001/REC-SVG-20010904/DTD/svg10.dtd">
<svg version="1.0" xmlns="http://www.w3.org/2000/svg"
 width="512.000000pt" height="512.000000pt" viewBox="0 0 512.000000 512.000000"
 preserveAspectRatio="xMidYMid meet">

<g transform="translate(0.000000,512.000000) scale(0.100000,-0.100000)"
fill="white" stroke="none">
<path d="M3360 5109 c-41 -16 -2049 -2027 -2071 -2074 -18 -39 -19 -93 -19
-1478 0 -1579 -4 -1481 61 -1528 34 -24 36 -24 284 -24 278 0 285 1 325 68 19
31 20 61 20 1352 l0 1320 939 940 c1030 1031 972 966 936 1052 -19 47 -316
349 -362 369 -37 16 -77 17 -113 3z m220 -264 l155 -155 -948 -948 -947 -947
0 -328 0 -327 -225 0 -225 0 0 422 0 423 1007 1007 c555 555 1013 1008 1018
1008 6 0 80 -70 165 -155z m-1740 -3015 l0 -190 -222 2 -223 3 -3 188 -2 187
225 0 225 0 0 -190z m0 -495 l0 -185 -225 0 -225 0 0 185 0 185 225 0 225 0 0
-185z m0 -495 l0 -190 -222 2 -223 3 -3 188 -2 187 225 0 225 0 0 -190z m-2
-512 l-3 -203 -220 0 -220 0 -3 203 -2 202 225 0 225 0 -2 -202z"/>
</g>
</svg>
