<?xml version="1.0" standalone="no"?>
<!DOCTYPE svg PUBLIC "-//W3C//DTD SVG 20010904//EN"
 "http://www.w3.org/TR/2001/REC-SVG-20010904/DTD/svg10.dtd">
<svg version="1.0" xmlns="http://www.w3.org/2000/svg"
 width="512.000000pt" height="512.000000pt" viewBox="0 0 512.000000 512.000000"
 preserveAspectRatio="xMidYMid meet">

<g transform="translate(0.000000,512.000000) scale(0.100000,-0.100000)"
fill="white" stroke="none">
<path d="M1443 4107 c-106 -50 -191 -92 -189 -94 2 -2 100 -13 219 -24 l215
-20 178 72 c99 39 190 76 204 81 14 6 21 12 15 14 -21 8 -398 64 -423 63 -15
0 -114 -42 -219 -92z"/>
<path d="M2125 3903 c-159 -64 -292 -117 -294 -119 -5 -4 81 -608 88 -616 3
-4 47 9 98 29 88 35 92 38 98 72 11 61 32 99 62 114 15 8 97 22 182 31 85 9
156 18 158 20 2 2 -14 131 -36 287 -23 155 -41 286 -41 291 0 4 -6 8 -12 8 -7
-1 -143 -53 -303 -117z"/>
<path d="M955 3778 c3 -18 23 -156 44 -307 22 -150 43 -277 48 -281 11 -9 632
-65 639 -57 8 8 -76 599 -87 611 -6 6 -560 64 -632 66 -15 0 -17 -6 -12 -32z"/>
<path d="M2852 3240 c-89 -10 -167 -20 -174 -22 -6 -2 79 -45 188 -95 l199
-92 215 10 c118 5 216 11 217 13 2 2 -82 49 -187 105 -219 116 -187 111 -458
81z"/>
<path d="M2256 2815 c-33 -167 -58 -306 -55 -309 17 -17 583 -266 589 -260 9
10 125 603 119 608 -7 8 -576 266 -585 266 -5 0 -36 -137 -68 -305z"/>
<path d="M915 2945 c-33 -15 -45 -24 -35 -28 8 -3 101 -14 207 -23 l192 -18
51 24 c27 13 49 25 47 26 -2 2 -79 10 -173 19 -93 8 -185 17 -204 19 -23 3
-52 -4 -85 -19z"/>
<path d="M1930 2921 c-107 -45 -501 -220 -508 -226 -5 -5 112 -625 118 -625 3
0 133 51 290 114 l284 114 -52 22 c-67 29 -102 70 -102 118 0 20 22 148 48
285 27 136 46 247 43 246 -3 0 -58 -22 -121 -48z"/>
<path d="M3465 2824 c-143 -7 -276 -13 -296 -13 -34 -1 -37 -3 -43 -38 -3 -21
-30 -161 -59 -311 l-54 -273 146 6 c363 16 503 24 507 28 4 3 124 600 124 615
0 1 -15 1 -32 0 -18 0 -150 -7 -293 -14z"/>
<path d="M617 2418 c24 -167 45 -308 47 -313 4 -10 633 -72 642 -63 3 4 -105
608 -110 614 -1 2 -605 64 -617 64 -3 0 14 -136 38 -302z"/>
<path d="M3735 2030 c-254 -27 -397 -81 -789 -297 l-180 -99 -41 -106 c-23
-58 -52 -122 -64 -142 -13 -20 -19 -36 -14 -36 5 0 150 63 323 141 446 200
582 242 836 255 109 6 578 -8 732 -22 l62 -6 0 121 c0 67 -2 121 -5 121 -2 0
-131 16 -287 35 -320 39 -457 47 -573 35z"/>
<path d="M535 1590 c8 -23 33 -75 55 -118 131 -252 357 -433 645 -518 79 -23
113 -27 270 -31 142 -4 199 -2 269 11 351 66 635 296 776 627 l29 69 -1029 0
-1029 0 14 -40z"/>
</g>
</svg>
