<?xml version="1.0" standalone="no"?>
<!DOCTYPE svg PUBLIC "-//W3C//DTD SVG 20010904//EN"
 "http://www.w3.org/TR/2001/REC-SVG-20010904/DTD/svg10.dtd">
<svg version="1.0" xmlns="http://www.w3.org/2000/svg"
 width="512.000000pt" height="512.000000pt" viewBox="0 0 512.000000 512.000000"
 preserveAspectRatio="xMidYMid meet">

<g transform="translate(0.000000,512.000000) scale(0.100000,-0.100000)"
fill="white" stroke="none">
<path d="M879 4834 l-24 -26 -3 -399 -3 -399 -308 0 c-294 0 -310 -1 -334 -20
-20 -16 -43 -74 -116 -293 l-91 -272 0 -1390 c0 -1176 3 -1399 15 -1451 24
-105 86 -193 177 -254 112 -75 4 -70 1580 -70 l1415 0 61 31 c70 34 105 71
139 145 l24 52 -4 543 c-1 299 -6 554 -11 567 -8 22 -8 22 104 22 103 0 112
-1 105 -17 -3 -10 -11 -40 -16 -67 -13 -69 -12 -958 2 -1032 13 -73 46 -131
100 -178 79 -68 74 -67 680 -64 535 3 545 3 584 25 54 29 110 87 137 142 23
46 23 48 26 577 3 524 2 532 -19 589 -26 70 -81 132 -146 165 -48 25 -50 25
-381 28 -310 3 -333 4 -327 20 22 57 26 162 23 620 -3 494 -3 497 -26 547 -30
65 -92 128 -156 157 -51 23 -53 23 -551 26 -346 2 -518 0 -560 -8 -111 -21
-199 -100 -230 -204 -21 -70 -22 -1025 -1 -1104 l13 -52 -183 0 -184 0 0 817
0 818 -91 272 c-73 219 -96 277 -116 293 -24 19 -40 20 -334 20 l-308 0 -3
228 c-2 185 -6 232 -18 247 -8 10 -136 99 -283 197 -293 195 -311 202 -358
152z m481 -634 l0 -190 -165 0 -165 0 0 300 0 300 165 -110 165 -110 0 -190z
m761 -517 c28 -87 54 -164 57 -170 3 -10 -198 -13 -983 -13 -785 0 -986 3
-983 13 3 6 29 83 57 170 l53 157 873 0 873 0 53 -157z m-1271 -523 l0 -170
-340 0 -340 0 0 170 0 170 340 0 340 0 0 -170z m1370 0 l0 -170 -340 0 -340 0
0 170 0 170 340 0 340 0 0 -170z m-860 -5 l0 -165 -165 0 -165 0 0 165 0 165
165 0 165 0 0 -165z m2673 -188 c64 -42 62 -20 62 -578 0 -498 0 -508 -21
-536 -47 -64 -39 -63 -579 -63 -548 0 -538 -1 -577 71 -17 32 -18 64 -16 541
l3 507 30 31 c16 17 43 35 60 40 16 5 251 8 520 7 450 -2 493 -3 518 -20z
m-1823 -661 l0 -503 -72 -12 c-118 -20 -205 -86 -244 -187 -18 -46 -19 -83
-19 -579 0 -387 3 -539 12 -562 l12 -33 -754 0 c-735 0 -756 1 -809 20 -35 14
-68 35 -91 62 -65 72 -68 87 -73 350 l-4 236 423 4 c399 4 427 6 480 25 157
58 260 179 290 337 16 89 7 659 -12 711 -57 158 -179 265 -338 295 -31 6 -221
10 -447 10 l-394 0 0 165 0 165 1020 0 1020 0 0 -504z m-1170 -27 c60 -27 98
-64 126 -124 23 -49 24 -55 24 -366 l0 -315 -26 -53 c-31 -61 -96 -114 -161
-130 -26 -7 -192 -11 -437 -11 l-396 0 0 510 0 510 413 0 c393 0 414 -1 457
-21z m2130 -674 c15 -8 38 -27 49 -41 21 -26 21 -35 21 -536 0 -454 -2 -513
-16 -538 -37 -61 -23 -60 -579 -60 -451 0 -510 2 -535 16 -61 37 -60 23 -60
574 0 553 -1 541 63 580 31 19 54 20 530 20 420 0 502 -2 527 -15z m1718 -5
c62 -38 62 -38 62 -580 0 -537 1 -527 -59 -569 -29 -21 -39 -21 -536 -21 -548
0 -543 0 -579 54 -14 23 -16 78 -16 537 0 453 2 514 16 538 37 62 20 60 574
61 489 0 506 -1 538 -20z"/>
<path d="M3240 2215 l0 -85 -85 0 -85 0 0 -85 0 -85 85 0 85 0 0 85 0 85 85 0
85 0 0 -85 0 -85 85 0 85 0 0 85 0 84 88 3 87 3 3 83 3 82 -91 0 -90 0 0 -85
0 -85 -85 0 -85 0 0 85 0 85 -85 0 -85 0 0 -85z"/>
<path d="M3752 2048 l3 -83 85 0 85 0 3 83 3 82 -91 0 -91 0 3 -82z"/>
<path d="M1700 2475 l0 -85 -85 0 -85 0 0 -85 0 -85 90 0 90 0 0 85 0 85 85 0
85 0 0 85 0 85 -90 0 -90 0 0 -85z"/>
<path d="M1360 855 l0 -85 -85 0 -86 0 3 -87 3 -88 85 0 85 0 3 88 3 87 84 0
85 0 0 85 0 85 -90 0 -90 0 0 -85z"/>
<path d="M2390 855 l0 -85 -85 0 -85 0 0 -85 0 -85 85 0 85 0 0 85 0 85 85 0
85 0 0 -85 0 -85 85 0 85 0 0 85 0 85 85 0 85 0 0 -85 0 -85 85 0 85 0 0 85 0
85 -85 0 -85 0 0 85 0 85 -85 0 -85 0 0 -85 0 -85 -85 0 -85 0 0 85 0 85 -85
0 -85 0 0 -85z"/>
<path d="M4100 855 l0 -84 -87 -3 -88 -3 -3 -82 -3 -83 91 0 90 0 0 85 0 85
85 0 85 0 0 -85 0 -85 85 0 85 0 0 85 0 85 85 0 85 0 0 -85 0 -85 85 0 85 0 0
85 0 85 -85 0 -85 0 0 85 0 85 -85 0 -85 0 0 -85 0 -85 -85 0 -85 0 0 85 0 85
-85 0 -85 0 0 -85z"/>
</g>
</svg>
