<svg version="1.1" id="Layer_1" xmlns="http://www.w3.org/2000/svg" xmlns:xlink="http://www.w3.org/1999/xlink" x="0px" y="0px"
	 width="100%" viewBox="0 0 512 512" enable-background="new 0 0 512 512" xml:space="preserve">
<path fill="#000000" opacity="1.000000" stroke="none" 
	d="
M1.000000,191.000000 
	C1.000000,127.333336 1.000000,64.166664 1.000000,1.000000 
	C171.666672,1.000000 342.333344,1.000000 513.000000,1.000000 
	C513.000000,171.666672 513.000000,342.333344 513.000000,513.000000 
	C342.333344,513.000000 171.666672,513.000000 1.000000,513.000000 
	C1.000000,405.833344 1.000000,298.666656 1.000000,191.000000 
M26.000721,283.437347 
	C27.328787,291.146057 28.494638,298.886902 30.014561,306.557617 
	C35.091705,332.180847 44.989086,355.899872 58.577694,378.143127 
	C71.456917,399.225189 87.434204,417.596588 106.135117,433.743286 
	C118.935593,444.795471 132.809769,454.179443 147.627167,462.185608 
	C166.026016,472.126953 185.446518,479.567383 205.926849,483.825409 
	C216.943497,486.115875 228.144226,488.230377 239.341019,488.764008 
	C253.057983,489.417725 266.887238,488.773712 280.611725,487.852814 
	C290.353851,487.199097 300.166534,485.848999 309.661255,483.600128 
	C333.526184,477.947540 356.010223,468.770142 377.103271,456.060608 
	C400.197327,442.145447 420.254486,424.692169 437.236908,403.983429 
	C452.463959,385.415222 464.529480,364.753601 473.410095,342.273071 
	C481.984833,320.566742 487.400879,298.060028 488.721893,274.920380 
	C489.801270,256.013519 489.572754,237.002380 486.211914,218.060211 
	C482.490845,197.087875 476.319916,177.047318 467.342346,157.854782 
	C458.377075,138.688690 446.742401,121.251793 432.868744,105.195953 
	C421.243225,91.741875 408.487183,79.506355 394.167877,69.159126 
	C380.351379,59.175228 365.549774,50.722351 349.799042,43.784851 
	C326.280396,33.425953 301.741669,27.039019 276.358246,25.331135 
	C257.157745,24.039257 237.783554,24.307819 218.501419,27.766502 
	C195.717529,31.853291 174.034058,38.651657 153.353897,48.921146 
	C136.017624,57.530121 119.569916,67.551674 105.609703,81.036087 
	C94.115746,92.138313 82.453880,103.258553 72.419937,115.630722 
	C60.528801,130.292862 51.460457,146.888351 43.768147,164.304504 
	C33.379356,187.825745 27.313095,212.389603 25.278912,237.772644 
	C24.092707,252.574432 25.667599,267.597504 26.000721,283.437347 
z"/>
<path fill="#E26677" opacity="1.000000" stroke="none" 
	d="
M26.000471,282.979187 
	C25.667599,267.597504 24.092707,252.574432 25.278912,237.772644 
	C27.313095,212.389603 33.379356,187.825745 43.768147,164.304504 
	C51.460457,146.888351 60.528801,130.292862 72.419937,115.630722 
	C82.453880,103.258553 94.115746,92.138313 105.609703,81.036087 
	C119.569916,67.551674 136.017624,57.530121 153.353897,48.921146 
	C174.034058,38.651657 195.717529,31.853291 218.501419,27.766502 
	C237.783554,24.307819 257.157745,24.039257 276.358246,25.331135 
	C301.741669,27.039019 326.280396,33.425953 349.799042,43.784851 
	C365.549774,50.722351 380.351379,59.175228 394.167877,69.159126 
	C408.487183,79.506355 421.243225,91.741875 432.868744,105.195953 
	C446.742401,121.251793 458.377075,138.688690 467.342346,157.854782 
	C476.319916,177.047318 482.490845,197.087875 486.211914,218.060211 
	C489.572754,237.002380 489.801270,256.013519 488.721893,274.920380 
	C487.400879,298.060028 481.984833,320.566742 473.410095,342.273071 
	C464.529480,364.753601 452.463959,385.415222 437.236908,403.983429 
	C420.254486,424.692169 400.197327,442.145447 377.103271,456.060608 
	C356.010223,468.770142 333.526184,477.947540 309.661255,483.600128 
	C300.166534,485.848999 290.353851,487.199097 280.611725,487.852814 
	C266.887238,488.773712 253.057983,489.417725 239.341019,488.764008 
	C228.144226,488.230377 216.943497,486.115875 205.926849,483.825409 
	C185.446518,479.567383 166.026016,472.126953 147.627167,462.185608 
	C132.809769,454.179443 118.935593,444.795471 106.135117,433.743286 
	C87.434204,417.596588 71.456917,399.225189 58.577694,378.143127 
	C44.989086,355.899872 35.091705,332.180847 30.014561,306.557617 
	C28.494638,298.886902 27.328787,291.146057 26.000471,282.979187 
M232.007858,294.001068 
	C232.007858,294.001068 231.985626,293.949768 231.362503,294.204376 
	C228.581299,297.487610 225.800095,300.770813 222.999573,304.001068 
	C222.999573,304.001068 223.052200,304.021179 222.414551,303.853973 
	C221.962646,304.266174 221.510742,304.678375 220.797501,305.703796 
	C184.195160,342.259247 147.592819,378.814728 111.005760,415.354919 
	C141.259964,442.134186 175.231110,460.435150 214.643585,468.042542 
	C254.150879,475.668274 292.754028,473.198853 330.692474,459.134766 
	C368.445648,445.139374 399.763641,422.598541 425.124329,391.422272 
	C485.205841,317.563019 494.203247,197.995041 415.327637,111.254227 
	C386.107422,140.463165 356.886963,169.665009 327.705170,198.905487 
	C327.211578,199.400070 327.186829,200.362564 326.974396,201.018890 
	C326.974396,201.018890 327.064270,201.044754 326.652527,200.402023 
	C326.114258,200.883759 325.575958,201.365494 324.355469,202.014709 
	C323.517700,202.534805 322.540680,202.915970 321.862732,203.595505 
	C308.494476,216.995682 295.160889,230.430496 281.244415,244.186356 
	C265.107147,260.416382 248.969894,276.646423 232.410416,293.140594 
	C232.142838,293.368164 231.990082,293.656586 232.007858,294.001068 
M268.726959,233.819199 
	C276.775116,225.538055 284.823303,217.256912 293.149597,208.357513 
	C329.754089,171.767792 366.358612,135.178055 402.912903,98.638519 
	C356.364838,57.075462 302.154480,37.486443 240.416626,42.268757 
	C178.613174,47.056149 127.967812,74.704422 88.708374,122.807365 
	C27.979813,197.215530 20.601269,317.514709 98.793526,402.809723 
	C128.232361,373.340393 157.664505,343.877747 187.773605,314.225342 
	C191.563583,310.528687 195.353561,306.832031 199.709808,302.792786 
	C212.822723,289.598450 225.935638,276.404114 239.647568,262.880829 
	C249.152603,253.308975 258.657623,243.737106 268.726959,233.819199 
z"/>
<path fill="#000000" opacity="1.000000" stroke="none" 
	d="
M187.096619,314.415100 
	C157.664505,343.877747 128.232361,373.340393 98.793526,402.809723 
	C20.601269,317.514709 27.979813,197.215530 88.708374,122.807365 
	C127.967812,74.704422 178.613174,47.056149 240.416626,42.268757 
	C302.154480,37.486443 356.364838,57.075462 402.912903,98.638519 
	C366.358612,135.178055 329.754089,171.767792 292.606659,208.679199 
	C288.054291,209.631531 284.044830,210.262177 280.019897,210.473755 
	C279.485413,207.019638 278.963348,203.985138 278.447876,200.949493 
	C276.297272,188.284409 274.183533,175.612946 271.986359,162.955948 
	C270.654022,155.281097 269.193756,147.628448 267.851227,139.572632 
	C265.444031,138.388641 263.010803,137.462708 260.503845,136.827713 
	C231.748367,129.544067 203.000488,122.227905 174.190643,115.164841 
	C171.101196,114.407417 167.291656,114.330032 164.422958,115.467537 
	C160.295410,117.104210 156.704437,120.114243 152.919678,122.591934 
	C130.332932,137.378357 107.743607,152.160980 85.204048,167.019058 
	C83.649376,168.043869 82.491333,169.670380 81.081329,171.449677 
	C82.022926,178.953491 82.873123,186.051804 84.072762,193.090576 
	C86.960220,210.032486 90.106232,226.930511 92.967728,243.876663 
	C95.449463,258.573853 97.580872,273.330536 100.113647,288.018402 
	C100.622589,290.969757 101.473335,293.638733 105.903793,294.252869 
	C113.038132,295.241821 119.958878,297.727936 126.993927,299.485229 
	C147.021637,304.487915 167.061523,309.441895 187.096619,314.415100 
z"/>
<path fill="#000000" opacity="1.000000" stroke="none" 
	d="
M326.943298,201.106720 
	C327.186829,200.362564 327.211578,199.400070 327.705170,198.905487 
	C356.886963,169.665009 386.107422,140.463165 415.327637,111.254227 
	C494.203247,197.995041 485.205841,317.563019 425.124329,391.422272 
	C399.763641,422.598541 368.445648,445.139374 330.692474,459.134766 
	C292.754028,473.198853 254.150879,475.668274 214.643585,468.042542 
	C175.231110,460.435150 141.259964,442.134186 111.005760,415.354919 
	C147.592819,378.814728 184.195160,342.259247 221.239075,305.352356 
	C222.137817,304.674316 222.595016,304.347748 223.052200,304.021179 
	C223.052200,304.021179 222.999573,304.001068 223.367523,303.997559 
	C226.135010,302.704102 228.534561,301.414154 230.955017,300.524902 
	C228.317764,313.690582 225.618378,326.447449 223.093506,339.238770 
	C222.923920,340.097870 223.821838,341.567627 224.648468,342.161957 
	C233.529007,348.546753 242.494629,354.813232 251.437958,361.110657 
	C265.164429,370.776184 278.848480,380.502808 292.641632,390.072205 
	C297.609802,393.519043 302.840942,396.586853 308.368042,399.902771 
	C316.214050,398.333527 323.636719,396.654877 331.075500,395.051117 
	C355.952515,389.688049 380.847595,384.406952 405.687744,378.878784 
	C407.317169,378.516174 409.479370,376.540833 409.810883,374.979584 
	C412.744385,361.163971 415.269867,347.262451 418.013672,333.405670 
	C421.481598,315.892059 425.096222,298.407440 428.536407,280.888489 
	C430.096863,272.941803 431.389709,264.942566 432.874023,256.610077 
	C432.769196,255.817947 432.722870,255.197784 432.401031,254.974243 
	C405.130646,236.032806 377.856049,217.097122 350.490814,198.293457 
	C349.304138,197.478043 347.216400,197.554047 345.639740,197.800110 
	C339.387878,198.775818 333.172333,199.984421 326.943298,201.106720 
z"/>
<path fill="#D3DCE5" opacity="1.000000" stroke="none" 
	d="
M187.435104,314.320190 
	C167.061523,309.441895 147.021637,304.487915 126.993927,299.485229 
	C119.958878,297.727936 113.038132,295.241821 105.903793,294.252869 
	C101.473335,293.638733 100.622589,290.969757 100.113647,288.018402 
	C97.580872,273.330536 95.449463,258.573853 92.967728,243.876663 
	C90.106232,226.930511 86.960220,210.032486 84.072762,193.090576 
	C82.873123,186.051804 82.022926,178.953491 81.491058,171.442383 
	C83.595177,171.265625 85.252037,171.409546 86.844391,171.809967 
	C106.305260,176.703857 125.739944,181.702850 145.216736,186.532104 
	C157.113586,189.481903 169.071411,192.185715 181.015320,195.412903 
	C187.067047,231.595673 193.105301,267.365509 199.143524,303.135376 
	C195.353561,306.832031 191.563583,310.528687 187.435104,314.320190 
z"/>
<path fill="#D3DCE5" opacity="1.000000" stroke="none" 
	d="
M307.952026,399.827667 
	C302.840942,396.586853 297.609802,393.519043 292.641632,390.072205 
	C278.848480,380.502808 265.164429,370.776184 251.437958,361.110657 
	C242.494629,354.813232 233.529007,348.546753 224.648468,342.161957 
	C223.821838,341.567627 222.923920,340.097870 223.093506,339.238770 
	C225.618378,326.447449 228.317764,313.690582 231.027924,300.138428 
	C231.381821,297.550751 231.683716,295.750275 231.985626,293.949768 
	C231.985626,293.949768 232.007858,294.001068 232.201157,293.881622 
	C232.540512,293.466919 232.686569,293.171692 232.832642,292.876465 
	C248.969894,276.646423 265.107147,260.416382 281.890686,244.104630 
	C284.231018,245.044479 285.987579,245.975983 287.609314,247.101685 
	C302.419556,257.381897 317.206360,267.695862 331.986084,278.405334 
	C327.311493,302.061523 322.622253,325.306702 317.999603,348.565094 
	C314.605225,365.643646 311.298065,382.739502 307.952026,399.827667 
z"/>
<path fill="#9DABC4" opacity="1.000000" stroke="none" 
	d="
M199.426666,302.964081 
	C193.105301,267.365509 187.067047,231.595673 181.361923,195.361832 
	C182.551346,194.408447 183.436661,193.963257 184.259750,193.423218 
	C210.162598,176.427856 236.047333,159.404785 261.984131,142.461441 
	C263.721680,141.326370 265.846344,140.783905 267.790955,139.965820 
	C269.193756,147.628448 270.654022,155.281097 271.986359,162.955948 
	C274.183533,175.612946 276.297272,188.284409 278.447876,200.949493 
	C278.963348,203.985138 279.485413,207.019638 279.793579,210.767181 
	C275.157593,212.659119 270.725311,213.812622 266.309052,215.024384 
	C260.531464,216.609726 254.766525,218.241104 248.630020,219.965424 
	C245.192108,234.455368 242.120331,248.832581 239.048553,263.209778 
	C225.935638,276.404114 212.822723,289.598450 199.426666,302.964081 
z"/>
<path fill="#B8C3D5" opacity="1.000000" stroke="none" 
	d="
M332.000000,278.000000 
	C317.206360,267.695862 302.419556,257.381897 287.609314,247.101685 
	C285.987579,245.975983 284.231018,245.044479 282.178589,243.940582 
	C295.160889,230.430496 308.494476,216.995682 321.862732,203.595505 
	C322.540680,202.915970 323.517700,202.534805 325.009125,201.996674 
	C326.129944,201.667328 326.597107,201.356033 327.064270,201.044739 
	C327.064270,201.044754 326.974396,201.018890 326.958862,201.062805 
	C333.172333,199.984421 339.387878,198.775818 345.639740,197.800110 
	C347.216400,197.554047 349.304138,197.478043 350.490814,198.293457 
	C377.856049,217.097122 405.130646,236.032806 432.401031,254.974243 
	C432.722870,255.197784 432.769196,255.817947 432.461761,256.612061 
	C430.987549,257.043060 429.969818,256.995728 429.007660,257.204529 
	C408.641785,261.624634 388.290619,266.112762 367.918152,270.502045 
	C355.961945,273.078033 343.973785,275.505646 332.000000,278.000000 
z"/>
<path fill="#D3DBE5" opacity="1.000000" stroke="none" 
	d="
M239.348053,263.045288 
	C242.120331,248.832581 245.192108,234.455368 248.821136,220.251953 
	C255.639801,225.005554 261.901245,229.585388 268.162659,234.165222 
	C258.657623,243.737106 249.152603,253.308975 239.348053,263.045288 
z"/>
<path fill="#B8C3D5" opacity="1.000000" stroke="none" 
	d="
M268.444824,233.992218 
	C261.901245,229.585388 255.639801,225.005554 249.187256,220.139191 
	C254.766525,218.241104 260.531464,216.609726 266.309052,215.024384 
	C270.725311,213.812622 275.157593,212.659119 279.809082,211.186264 
	C284.044830,210.262177 288.054291,209.631531 292.467590,208.988312 
	C284.823303,217.256912 276.775116,225.538055 268.444824,233.992218 
z"/>
<path fill="#A0AAC3" opacity="1.000000" stroke="none" 
	d="
M231.674057,294.077087 
	C231.683716,295.750275 231.381821,297.550751 231.007019,299.737732 
	C228.534561,301.414154 226.135010,302.704102 223.377167,304.024017 
	C225.800095,300.770813 228.581299,297.487610 231.674057,294.077087 
z"/>
<path fill="#000000" opacity="1.000000" stroke="none" 
	d="
M326.858398,200.723389 
	C326.597107,201.356033 326.129944,201.667328 325.350220,201.912918 
	C325.575958,201.365494 326.114258,200.883759 326.858398,200.723389 
z"/>
<path fill="#A0AAC3" opacity="1.000000" stroke="none" 
	d="
M222.733368,303.937561 
	C222.595016,304.347748 222.137817,304.674316 221.369751,305.045715 
	C221.510742,304.678375 221.962646,304.266174 222.733368,303.937561 
z"/>
<path fill="#A0AAC3" opacity="1.000000" stroke="none" 
	d="
M232.621521,293.008514 
	C232.686569,293.171692 232.540512,293.466919 232.173309,293.884033 
	C231.990082,293.656586 232.142838,293.368164 232.621521,293.008514 
z"/>
<path fill="#B8C3D5" opacity="1.000000" stroke="none" 
	d="
M267.851227,139.572632 
	C265.846344,140.783905 263.721680,141.326370 261.984131,142.461441 
	C236.047333,159.404785 210.162598,176.427856 184.259750,193.423218 
	C183.436661,193.963257 182.551346,194.408447 181.348450,194.948914 
	C169.071411,192.185715 157.113586,189.481903 145.216736,186.532104 
	C125.739944,181.702850 106.305260,176.703857 86.844391,171.809967 
	C85.252037,171.409546 83.595177,171.265625 81.558563,171.009811 
	C82.491333,169.670380 83.649376,168.043869 85.204048,167.019058 
	C107.743607,152.160980 130.332932,137.378357 152.919678,122.591934 
	C156.704437,120.114243 160.295410,117.104210 164.422958,115.467537 
	C167.291656,114.330032 171.101196,114.407417 174.190643,115.164841 
	C203.000488,122.227905 231.748367,129.544067 260.503845,136.827713 
	C263.010803,137.462708 265.444031,138.388641 267.851227,139.572632 
z"/>
<path fill="#9DABC4" opacity="1.000000" stroke="none" 
	d="
M331.986084,278.405334 
	C343.973785,275.505646 355.961945,273.078033 367.918152,270.502045 
	C388.290619,266.112762 408.641785,261.624634 429.007660,257.204529 
	C429.969818,256.995728 430.987549,257.043060 432.391663,256.969116 
	C431.389709,264.942566 430.096863,272.941803 428.536407,280.888489 
	C425.096222,298.407440 421.481598,315.892059 418.013672,333.405670 
	C415.269867,347.262451 412.744385,361.163971 409.810883,374.979584 
	C409.479370,376.540833 407.317169,378.516174 405.687744,378.878784 
	C380.847595,384.406952 355.952515,389.688049 331.075500,395.051117 
	C323.636719,396.654877 316.214050,398.333527 308.368042,399.902771 
	C311.298065,382.739502 314.605225,365.643646 317.999603,348.565094 
	C322.622253,325.306702 327.311493,302.061523 331.986084,278.405334 
z"/>
</svg>