<?xml version="1.0" standalone="no"?>
<!DOCTYPE svg PUBLIC "-//W3C//DTD SVG 20010904//EN"
 "http://www.w3.org/TR/2001/REC-SVG-20010904/DTD/svg10.dtd">
<svg version="1.0" xmlns="http://www.w3.org/2000/svg"
 width="4000.000000pt" height="4000.000000pt" viewBox="0 0 4000.000000 4000.000000"
 preserveAspectRatio="xMidYMid meet">

<g transform="translate(0.000000,4000.000000) scale(0.100000,-0.100000)"
fill="#000000" stroke="none">
<path d="M19475 27943 c-1101 -12 -2337 -91 -3405 -219 -2588 -309 -4699 -931
-5795 -1707 -173 -122 -286 -217 -426 -357 -265 -263 -417 -520 -486 -817 -31
-135 -20 -876 22 -1513 181 -2687 933 -5042 2212 -6928 69 -101 123 -185 121
-186 -2 -1 -68 -31 -148 -66 -1180 -523 -2072 -1200 -2522 -1918 -389 -618
-459 -1294 -201 -1936 384 -958 1490 -1830 3178 -2504 1755 -701 3972 -1139
6435 -1272 918 -49 2072 -47 3020 5 2073 116 4024 462 5615 997 2296 772 3706
1849 4009 3063 40 160 56 298 56 478 0 343 -66 618 -230 953 -247 503 -742
1019 -1397 1455 -76 50 -142 95 -146 99 -4 4 54 22 130 40 1087 259 2089 864
2893 1745 448 491 726 895 1024 1485 313 619 494 1188 578 1815 20 150 23 212
23 530 0 375 -3 412 -51 695 -100 587 -345 1138 -712 1600 -98 123 -390 415
-512 511 -377 298 -779 497 -1241 614 -271 69 -499 97 -801 98 l-206 0 -7 56
c-106 916 -1361 1763 -3485 2351 -1612 447 -3551 720 -5740 810 -309 13 -1249
30 -1450 28 -80 -2 -239 -4 -355 -5z m1415 -414 c288 -8 762 -27 860 -34 36
-2 115 -7 175 -10 1448 -79 3014 -290 4235 -571 2235 -515 3704 -1299 3922
-2095 27 -102 33 -328 19 -769 -21 -632 -55 -1096 -127 -1695 -173 -1454 -566
-2882 -1129 -4110 -117 -254 -301 -619 -332 -655 -13 -16 -35 -55 -47 -87 -47
-120 -367 -643 -582 -953 -203 -293 -465 -635 -531 -693 -19 -16 -42 -45 -51
-63 -9 -18 -73 -96 -141 -174 -1036 -1185 -2309 -2086 -3748 -2653 -1245 -491
-2580 -715 -3902 -656 -135 6 -247 14 -248 18 -2 3 -25 4 -53 3 -27 -2 -50 0
-50 5 0 4 -42 9 -93 10 -50 2 -99 6 -107 9 -8 4 -31 6 -50 5 -20 -1 -48 3 -63
8 -28 11 -28 12 -28 93 1 149 -52 498 -95 628 -201 599 -911 1021 -1853 1101
-168 14 -601 6 -755 -14 -87 -12 -99 -11 -103 2 -131 378 -407 768 -744 1051
-242 203 -503 356 -846 496 -214 87 -272 99 -513 99 -225 0 -303 -12 -493 -75
-154 -51 -414 -185 -553 -285 -19 -14 -25 -10 -114 91 -813 916 -1481 2009
-1968 3220 -525 1305 -854 2766 -977 4344 -39 506 -55 880 -55 1310 0 251 3
295 20 369 26 107 81 225 161 343 78 114 303 342 444 450 1233 936 3873 1629
7090 1862 482 35 1014 61 1530 75 363 10 1555 10 1895 0z m10025 -3239 c211
-16 381 -47 625 -114 87 -24 181 -62 173 -70 -4 -4 -1 -4 8 -1 17 7 85 -19
113 -43 11 -10 16 -11 12 -4 -13 22 254 -108 295 -144 8 -8 18 -14 22 -14 16
0 96 -58 89 -65 -4 -5 -1 -5 6 -1 13 7 66 -27 56 -37 -3 -3 3 -4 13 -3 10 0
17 -5 15 -12 -1 -8 2 -11 8 -7 12 7 77 -37 189 -128 350 -286 653 -692 839
-1127 122 -284 191 -544 244 -915 18 -122 17 -684 0 -825 -93 -756 -346 -1453
-804 -2217 -127 -211 -218 -344 -364 -530 -213 -270 -431 -509 -656 -721 -161
-151 -226 -204 -240 -195 -6 3 -8 1 -5 -4 9 -14 -19 -37 -34 -27 -7 4 -9 3 -6
-3 9 -14 -29 -47 -44 -37 -7 4 -10 3 -6 -3 4 -6 -25 -36 -63 -67 -39 -31 -70
-55 -70 -52 0 3 -12 -6 -26 -19 -25 -23 -100 -77 -163 -117 -14 -9 -31 -21
-37 -27 -7 -5 -15 -7 -18 -4 -3 4 -6 1 -6 -5 0 -13 -78 -65 -97 -65 -7 0 -11
-3 -8 -5 8 -8 -118 -82 -128 -75 -6 3 -7 2 -4 -4 8 -13 -230 -146 -245 -137
-6 4 -8 3 -5 -3 6 -9 -202 -118 -214 -111 -4 1 -15 -4 -25 -13 -26 -22 -116
-61 -108 -46 4 7 -2 4 -14 -6 -12 -11 -26 -16 -33 -11 -7 4 -10 3 -5 -4 5 -9
-151 -77 -179 -77 -5 0 -12 -3 -15 -6 -5 -7 -207 -77 -240 -84 -8 -2 -26 -8
-40 -13 -14 -5 -27 -10 -30 -10 -3 0 -36 -9 -74 -21 -38 -12 -81 -23 -97 -26
-15 -3 -39 -9 -53 -15 -15 -5 -26 -7 -26 -5 0 2 -11 0 -24 -4 -101 -39 -708
-134 -831 -130 -11 0 -51 -2 -90 -5 -91 -6 -305 -9 -473 -7 -99 1 -132 5 -129
14 2 7 10 11 16 9 7 -1 10 1 7 6 -3 5 2 18 10 28 9 10 12 13 8 5 -5 -9 -3 -12
5 -7 6 4 9 11 6 15 -6 11 54 87 67 83 5 -1 7 2 3 7 -6 10 109 173 117 165 3
-2 5 2 5 9 0 16 44 77 55 77 5 0 7 3 4 8 -6 11 63 104 73 97 5 -3 7 3 5 12 -3
10 6 29 19 43 13 14 26 33 30 43 4 11 12 15 18 11 8 -4 9 -3 5 5 -10 15 13 43
27 34 5 -3 7 -1 4 5 -10 15 3 43 16 35 5 -3 7 -1 3 5 -6 11 38 85 46 77 3 -3
5 1 5 8 0 13 81 147 89 147 3 0 2 -5 -2 -12 -4 -7 -3 -8 4 -4 6 4 8 14 5 23
-5 12 -3 14 7 8 9 -5 11 -4 6 4 -4 6 -2 18 4 27 12 14 28 41 65 111 9 18 22
30 28 26 6 -3 7 -1 3 5 -8 14 28 74 39 64 5 -4 5 -2 2 4 -4 7 15 49 41 95 l48
84 60 3 c205 8 477 57 691 122 40 12 78 18 84 14 8 -5 9 -3 4 6 -6 10 -4 12 9
7 9 -4 15 -3 12 2 -5 8 69 34 88 31 5 -1 12 4 16 10 4 7 19 13 33 13 14 1 23
5 20 10 -2 4 3 8 11 8 26 2 26 2 165 72 73 36 139 64 145 60 6 -3 8 -3 4 2 -4
4 36 34 90 65 54 31 127 76 161 99 35 22 67 38 73 35 6 -4 8 -2 4 4 -8 13 81
75 96 66 7 -4 8 -2 4 4 -4 6 24 35 66 68 886 700 1518 1754 1669 2784 26 177
35 479 20 635 -44 428 -180 765 -418 1038 -172 196 -421 362 -678 453 -44 15
-83 32 -86 37 -3 5 -10 8 -15 8 -5 -1 -49 8 -99 20 -98 23 -231 50 -255 51 -8
0 -51 5 -95 10 -44 5 -110 9 -148 8 l-67 -1 6 88 c3 48 8 94 10 102 2 7 6 57
9 110 2 53 9 188 15 301 7 113 15 315 18 450 l7 245 40 6 c66 10 212 10 360
-1z m-240 -1721 c438 -51 791 -240 993 -533 230 -332 302 -820 201 -1371 -164
-898 -763 -1848 -1527 -2422 -364 -274 -780 -467 -1162 -541 -140 -27 -170
-32 -170 -28 0 1 44 95 99 207 635 1313 1074 2854 1266 4449 15 118 28 225 31
238 5 22 7 23 92 17 48 -3 128 -11 177 -16z m-18689 -6706 c26 -43 263 -331
390 -477 77 -87 143 -164 149 -172 7 -10 -20 -44 -111 -136 -381 -389 -689
-884 -899 -1448 -361 -969 -333 -1958 73 -2569 81 -123 236 -279 354 -357 247
-166 716 -321 1143 -380 176 -25 531 -25 700 0 116 17 308 59 409 90 l49 15
311 -104 c628 -211 1198 -354 1951 -490 657 -118 1627 -226 2249 -251 83 -3
157 -7 164 -10 23 -7 679 -19 1037 -19 332 0 792 10 955 21 41 2 185 11 320
19 2627 161 4910 831 6040 1772 103 86 295 280 375 378 197 243 326 509 370
764 21 123 21 328 0 456 -86 528 -527 1061 -1230 1489 -44 27 -90 55 -102 62
-21 13 -12 24 265 301 158 159 350 360 427 447 77 88 154 175 170 193 l30 33
90 -11 c142 -15 760 -23 923 -10 l144 10 138 -79 c346 -198 630 -391 895 -611
136 -113 422 -401 524 -529 630 -788 625 -1604 -15 -2406 -106 -133 -379 -405
-539 -535 -494 -404 -1133 -770 -1910 -1094 -1339 -558 -3041 -966 -4895
-1174 -335 -38 -758 -77 -1040 -96 -47 -3 -110 -8 -140 -10 -97 -9 -599 -34
-805 -40 -110 -3 -245 -8 -300 -11 -134 -7 -1300 -7 -1445 0 -63 3 -198 8
-300 11 -102 3 -216 8 -255 10 -38 2 -124 7 -190 10 -1275 63 -2643 242 -3819
501 -1755 387 -3205 957 -4191 1648 -314 219 -682 553 -868 786 -317 399 -477
801 -478 1200 0 155 11 242 47 389 169 680 799 1355 1804 1931 269 154 962
495 1015 499 6 1 15 -7 21 -16z m2002 -369 c12 -4 22 -11 21 -18 0 -6 -22 -53
-47 -105 l-47 -94 -95 -27 c-179 -50 -348 -127 -523 -237 -145 -90 -260 -181
-250 -196 3 -6 1 -7 -4 -4 -15 10 -65 -34 -246 -216 -101 -102 -156 -165 -153
-174 3 -8 2 -12 -3 -8 -12 7 -72 -66 -64 -78 3 -6 2 -7 -4 -4 -6 4 -39 -33
-75 -81 -446 -601 -734 -1340 -799 -2051 -13 -154 -8 -563 8 -583 6 -7 7 -22
4 -32 -15 -40 -80 231 -100 416 -14 124 -14 445 -1 579 33 325 120 674 253
1014 63 160 213 462 304 613 469 775 1149 1280 1738 1291 33 0 70 -2 83 -5z
m406 -121 c69 -29 105 -51 153 -97 35 -32 62 -61 59 -63 -2 -2 -24 1 -50 8
-36 9 -56 9 -91 -1 -48 -13 -111 -61 -126 -95 -5 -11 -14 -27 -19 -35 -9 -13
-64 -129 -165 -345 -13 -27 -33 -70 -45 -95 -12 -25 -55 -115 -95 -200 -40
-85 -115 -245 -168 -355 -155 -327 -184 -388 -307 -650 -65 -137 -138 -293
-163 -345 -116 -245 -138 -293 -189 -400 -30 -63 -86 -180 -123 -260 -37 -80
-101 -214 -141 -299 -41 -85 -74 -155 -74 -157 0 -1 -34 -74 -76 -161 -42 -87
-95 -201 -119 -253 -24 -52 -79 -167 -123 -255 -43 -88 -103 -212 -132 -275
-29 -63 -56 -119 -60 -123 -8 -9 -136 70 -133 81 1 6 157 337 668 1422 256
543 797 1691 1037 2200 121 256 254 538 295 628 42 89 81 162 87 162 6 0 51
-17 100 -37z m12110 -1110 c279 -160 535 -351 732 -548 257 -254 403 -486 464
-735 167 -680 -375 -1373 -1520 -1944 -1233 -614 -2971 -1012 -4985 -1140
-213 -14 -305 -18 -630 -31 -1062 -41 -2517 37 -3490 188 l-80 12 79 23 c291
85 636 267 886 468 104 83 275 253 356 354 222 273 387 626 451 958 l18 93 40
-5 c78 -11 383 -36 590 -47 241 -13 1017 -7 1220 10 645 53 1162 136 1710 272
1255 314 2454 885 3500 1668 156 117 383 298 490 390 39 33 74 60 79 61 5 0
45 -21 90 -47z m-9749 -403 c94 -6 217 -17 275 -26 478 -69 897 -252 1145
-499 89 -87 193 -234 181 -254 -3 -5 -46 -12 -96 -16 l-90 -7 -77 72 c-692
637 -2179 719 -3264 180 -118 -59 -282 -153 -319 -184 -33 -28 -70 -48 -70
-39 0 5 28 33 63 64 459 409 1137 666 1867 708 198 12 200 12 385 1z m1696
-1102 c15 -95 18 -213 6 -243 -8 -17 -10 -15 -22 20 -18 50 -81 110 -131 124
-31 9 -101 4 -349 -24 -770 -87 -3099 -346 -3270 -365 -104 -11 -255 -27 -335
-35 -80 -9 -164 -18 -187 -21 l-43 -6 0 70 0 70 38 6 c20 3 339 40 707 81 369
42 873 98 1120 126 248 28 896 101 1440 164 545 62 995 113 1001 114 7 0 17
-33 25 -81z"/>
<path d="M20077 25904 c-1 -1 -285 -4 -632 -7 -346 -3 -637 -8 -645 -11 -8 -2
-103 -7 -210 -11 -107 -3 -253 -9 -325 -13 -71 -3 -165 -7 -207 -8 -42 -1 -85
-5 -95 -8 -10 -3 -79 -8 -154 -11 -75 -2 -143 -7 -150 -9 -8 -3 -63 -7 -124
-11 -60 -3 -130 -8 -155 -11 -138 -13 -378 -32 -400 -32 -14 1 -32 -1 -40 -5
-8 -3 -91 -13 -185 -22 -93 -10 -192 -20 -220 -23 -27 -3 -70 -6 -95 -8 -25
-1 -52 -5 -60 -8 -8 -3 -44 -7 -80 -10 -36 -2 -72 -6 -80 -9 -8 -3 -107 -17
-220 -32 -171 -22 -714 -104 -800 -120 -14 -3 -122 -23 -240 -44 -118 -22
-248 -47 -288 -55 -40 -8 -79 -13 -87 -9 -8 3 -15 1 -15 -4 0 -6 -33 -16 -72
-23 -40 -7 -79 -15 -87 -18 -10 -4 -12 -1 -6 9 6 10 4 10 -11 -2 -25 -20 -167
-52 -196 -44 -16 4 -19 3 -10 -3 9 -6 -6 -13 -50 -22 -85 -18 -100 -20 -124
-24 -11 -1 -24 -5 -30 -8 -5 -3 -58 -18 -119 -33 -239 -59 -618 -170 -873
-256 -95 -32 -179 -57 -185 -55 -7 1 -8 1 -3 -2 5 -3 -37 -22 -94 -43 -56 -21
-107 -36 -113 -32 -6 3 -7 1 -3 -5 4 -7 1 -13 -8 -13 -24 -2 -29 -4 -53 -17
-12 -6 -30 -13 -40 -15 -10 -2 -49 -19 -88 -37 -188 -87 -218 -99 -228 -93 -5
3 -7 1 -4 -4 7 -11 -107 -68 -130 -66 -7 0 -11 -3 -8 -6 6 -11 -65 -42 -78
-35 -7 4 -9 4 -5 -1 7 -7 -151 -103 -177 -108 -5 -1 -21 -12 -35 -25 -14 -12
-31 -20 -38 -17 -7 3 -11 1 -9 -3 6 -9 -150 -115 -169 -115 -7 0 -11 -4 -9 -8
8 -12 -23 -31 -37 -23 -7 4 -10 3 -5 -1 7 -9 -20 -45 -34 -45 -5 0 -27 -18
-51 -40 -24 -22 -45 -40 -48 -40 -10 0 -41 60 -36 68 3 5 -4 16 -14 25 -32 27
-63 151 -64 252 -1 99 15 172 60 272 27 61 28 62 48 45 21 -17 21 -17 2 5 -18
22 -18 23 30 95 59 90 257 290 384 388 166 127 373 259 603 384 63 34 87 53
87 67 0 30 -31 24 -184 -37 -768 -306 -1220 -726 -1265 -1176 -20 -202 29
-384 159 -593 21 -33 41 -70 44 -82 4 -12 26 -38 49 -58 23 -21 83 -76 132
-124 633 -604 1941 -1083 3825 -1401 1097 -185 2151 -291 3485 -351 381 -17
1725 -23 2176 -10 2397 70 4410 362 5924 858 849 278 1535 661 1843 1028 216
257 303 498 271 755 -26 220 -117 396 -304 589 -206 213 -465 380 -826 532
-145 61 -431 157 -493 165 -53 8 -70 -16 -31 -42 14 -9 22 -21 18 -27 -3 -5
-2 -7 4 -4 5 3 56 -21 112 -53 128 -75 143 -85 134 -94 -4 -4 1 -4 11 0 15 6
17 4 11 -6 -6 -9 -4 -11 4 -5 7 4 23 -3 38 -16 13 -13 25 -22 26 -21 3 6 57
-21 57 -28 0 -4 9 -10 21 -13 13 -4 18 -10 13 -18 -4 -8 -3 -10 5 -5 6 4 38
-10 72 -33 34 -23 63 -41 65 -41 12 0 208 -154 206 -162 -1 -5 1 -7 6 -4 11 6
52 -21 52 -35 0 -6 -4 -8 -9 -5 -11 7 -8 -21 4 -31 4 -4 5 -2 1 5 -4 7 -1 15
9 19 12 4 27 -5 47 -28 17 -19 27 -27 23 -19 -8 15 208 -201 234 -234 7 -10
37 -53 67 -97 47 -71 52 -83 42 -102 -10 -19 -9 -20 4 -9 13 11 18 4 36 -45
37 -102 56 -263 32 -278 -6 -4 -8 -10 -5 -15 12 -19 -36 -156 -59 -172 -6 -4
-8 -8 -3 -8 4 0 0 -14 -8 -30 -9 -17 -20 -28 -25 -25 -6 3 -7 0 -4 -8 3 -8 1
-18 -5 -21 -12 -8 -83 53 -75 65 3 5 -1 6 -9 4 -7 -3 -22 5 -33 17 -19 23 -19
23 1 8 18 -14 19 -14 6 2 -7 10 -17 16 -20 13 -11 -6 -117 76 -113 87 1 5 -1
7 -6 4 -5 -3 -19 2 -32 11 l-23 16 24 13 24 12 -27 -1 c-14 -1 -24 -5 -21 -9
9 -16 -13 -7 -64 26 -29 18 -50 35 -48 38 3 3 -1 5 -7 5 -22 1 -238 129 -231
137 4 4 -1 4 -11 0 -15 -6 -17 -4 -11 6 5 8 4 11 -2 7 -15 -9 -146 57 -136 68
4 4 3 5 -3 2 -7 -4 -58 15 -115 41 -104 49 -260 116 -269 117 -24 3 -49 18
-44 27 5 7 2 8 -5 4 -7 -5 -47 5 -89 22 -137 53 -217 82 -228 82 -7 0 -17 7
-24 15 -7 8 -16 13 -19 10 -12 -7 -81 17 -75 26 3 5 -1 7 -8 4 -7 -3 -58 10
-113 28 -55 19 -146 47 -202 62 -56 16 -100 32 -98 36 3 4 -5 7 -18 6 -21 -1
-213 48 -307 79 -43 13 -221 57 -430 104 -52 12 -113 27 -135 33 -22 6 -44 10
-49 8 -4 -1 -14 3 -20 9 -7 5 -16 7 -19 4 -3 -3 -11 -2 -18 2 -7 4 -25 9 -39
10 -61 7 -149 28 -144 36 3 4 -1 5 -9 2 -8 -3 -98 11 -198 30 -101 19 -215 41
-254 47 -38 6 -75 15 -81 20 -6 5 -13 7 -16 4 -3 -3 -99 10 -214 29 -115 19
-312 49 -439 66 -126 18 -237 35 -245 39 -8 5 -24 7 -35 5 -11 -2 -69 4 -130
11 -60 8 -186 24 -280 35 -93 11 -186 23 -205 25 -19 3 -44 5 -55 5 -21 0
-277 24 -435 40 -52 6 -144 13 -205 16 -60 3 -115 10 -121 15 -5 4 -19 6 -30
3 -11 -3 -118 2 -239 10 -121 9 -265 18 -320 21 -55 3 -136 7 -180 9 -275 16
-1418 47 -1428 40z m-1797 -739 c498 -52 934 -191 1237 -393 154 -102 316
-273 384 -404 13 -27 27 -48 30 -48 3 0 15 19 25 42 47 105 186 262 319 361
168 126 433 255 640 312 28 8 75 21 105 30 30 8 111 27 180 41 710 145 1512
92 2131 -142 431 -163 733 -405 873 -698 39 -81 45 -102 51 -186 11 -159 -26
-329 -101 -459 -185 -318 -608 -553 -1334 -740 -168 -44 -503 -117 -645 -141
-27 -5 -126 -23 -220 -39 -180 -33 -822 -135 -915 -146 -285 -34 -615 -149
-819 -286 l-76 -51 -216 0 -215 -1 -50 35 c-150 104 -322 182 -534 241 -72 21
-301 63 -415 77 -152 19 -928 149 -1140 191 -427 85 -721 161 -966 249 -63 23
-127 45 -144 50 -66 21 -342 163 -427 222 -227 156 -364 337 -415 550 -25 106
-25 306 1 373 93 243 344 490 664 653 317 162 749 276 1187 312 72 5 150 12
175 14 90 8 488 -4 630 -19z m-3000 -593 c0 -4 -23 -30 -51 -57 -74 -73 -190
-219 -242 -305 -96 -160 -113 -318 -49 -454 85 -182 212 -306 721 -707 62 -48
89 -75 78 -77 -48 -9 -348 92 -485 164 -315 165 -511 376 -571 614 -33 131
-24 245 29 370 38 87 68 129 159 220 94 94 188 155 315 207 87 35 96 37 96 25z
m9287 -21 c320 -118 533 -383 533 -661 -1 -302 -226 -577 -632 -774 -151 -73
-411 -157 -448 -144 -6 2 8 18 32 35 24 17 54 42 68 55 14 13 54 46 90 73 271
205 473 392 553 509 23 34 54 92 71 131 25 60 30 82 29 155 -1 96 -20 162 -79
267 -42 75 -118 178 -183 247 -102 108 -126 136 -118 136 4 0 41 -13 84 -29z
m-11159 -138 c-10 -2 -26 -2 -35 0 -10 3 -2 5 17 5 19 0 27 -2 18 -5z m-142
-48 c-12 -9 -17 -22 -13 -35 3 -11 1 -18 -4 -14 -15 9 -10 42 9 53 25 15 30
13 8 -4z m432 -20 c-3 -3 -9 2 -12 12 -6 14 -5 15 5 6 7 -7 10 -15 7 -18z m-9
-42 c-6 -7 -17 -13 -23 -12 -7 0 -6 2 2 6 6 2 10 8 8 12 -3 4 1 8 9 8 11 0 12
-4 4 -14z m-42 -19 c-3 -3 -12 -4 -19 -1 -8 3 -5 6 6 6 11 1 17 -2 13 -5z
m-42 -14 c-3 -5 -14 -10 -23 -9 -14 0 -13 2 3 9 27 11 27 11 20 0z m13528 -99
c138 -36 197 -83 181 -146 -32 -128 -482 -176 -686 -74 -110 56 -102 145 17
195 114 47 352 59 488 25z m-14626 -127 c-3 -3 -12 -4 -19 -1 -8 3 -5 6 6 6
11 1 17 -2 13 -5z m58 -4 c-3 -5 -12 -10 -18 -10 -7 0 -6 4 3 10 19 12 23 12
15 0z m342 -26 c-3 -3 -12 -4 -19 -1 -8 3 -5 6 6 6 11 1 17 -2 13 -5z m140 0
c-3 -3 -12 -4 -19 -1 -8 3 -5 6 6 6 11 1 17 -2 13 -5z m31 -29 c-3 -3 -9 2
-12 12 -6 14 -5 15 5 6 7 -7 10 -15 7 -18z m13195 -66 c39 -18 36 -54 -4 -68
-43 -15 -178 -14 -209 2 -14 7 -26 22 -28 34 -3 18 5 25 45 37 53 18 153 15
196 -5z m-13888 1 c3 -5 1 -10 -4 -10 -6 0 -11 5 -11 10 0 6 2 10 4 10 3 0 8
-4 11 -10z m700 -20 c-10 -11 -20 -18 -22 -16 -6 5 30 44 36 39 2 -1 -4 -12
-14 -23z m-645 -10 c0 -5 -2 -10 -4 -10 -3 0 -8 5 -11 10 -3 6 -1 10 4 10 6 0
11 -4 11 -10z m1237 -76 c-3 -3 -12 -4 -19 -1 -8 3 -5 6 6 6 11 1 17 -2 13 -5z
m103 -14 c0 -5 -4 -10 -10 -10 -5 0 -10 5 -10 10 0 6 5 10 10 10 6 0 10 -4 10
-10z m47 -16 c-3 -3 -12 -4 -19 -1 -8 3 -5 6 6 6 11 1 17 -2 13 -5z m-170 -30
c-3 -3 -12 -4 -19 -1 -8 3 -5 6 6 6 11 1 17 -2 13 -5z m150 0 c-3 -3 -12 -4
-19 -1 -8 3 -5 6 6 6 11 1 17 -2 13 -5z m-64 -21 c-13 -2 -33 -2 -45 0 -13 2
-3 4 22 4 25 0 35 -2 23 -4z m12997 -89 c69 -15 120 -48 120 -77 0 -8 -8 -24
-17 -35 -84 -95 -483 -71 -483 29 0 37 31 60 108 80 84 22 183 23 272 3z"/>
<path d="M28251 25067 c-8 -10 -7 -14 2 -14 8 0 14 6 14 14 0 7 -1 13 -2 13
-2 0 -8 -6 -14 -13z"/>
<path d="M11410 24930 c-9 -6 -10 -10 -3 -10 6 0 15 5 18 10 8 12 4 12 -15 0z"/>
<path d="M28420 24901 c0 -6 4 -13 10 -16 6 -3 7 1 4 9 -7 18 -14 21 -14 7z"/>
<path d="M28495 24749 c-4 -6 -5 -12 -2 -15 2 -3 7 2 10 11 7 17 1 20 -8 4z"/>
<path d="M28379 22373 c-13 -16 -12 -17 4 -4 16 13 21 21 13 21 -2 0 -10 -8
-17 -17z"/>
<path d="M27755 22041 c-3 -5 -2 -12 3 -15 5 -3 9 1 9 9 0 17 -3 19 -12 6z"/>
<path d="M29214 21424 c-18 -14 -18 -15 4 -4 12 6 22 13 22 15 0 8 -5 6 -26
-11z"/>
<path d="M28399 20873 c-13 -17 -13 -17 6 -3 11 8 22 16 24 17 2 2 0 3 -6 3
-6 0 -17 -8 -24 -17z"/>
<path d="M29086 20172 c-2 -4 4 -8 14 -8 10 0 16 4 14 8 -3 4 -9 8 -14 8 -5 0
-11 -4 -14 -8z"/>
<path d="M27740 19340 c-9 -6 -10 -10 -3 -10 6 0 15 5 18 10 8 12 4 12 -15 0z"/>
<path d="M26254 15178 l-19 -23 23 19 c12 11 22 21 22 23 0 8 -8 2 -26 -19z"/>
<path d="M25919 14863 c-13 -16 -12 -17 4 -4 9 7 17 15 17 17 0 8 -8 3 -21
-13z"/>
<path d="M25123 14225 c0 -7 6 -11 14 -8 7 3 13 6 13 8 0 2 -6 5 -13 8 -8 3
-14 -1 -14 -8z"/>
<path d="M23605 13300 c-3 -6 1 -7 9 -4 18 7 21 14 7 14 -6 0 -13 -4 -16 -10z"/>
<path d="M22738 12933 c7 -3 16 -2 19 1 4 3 -2 6 -13 5 -11 0 -14 -3 -6 -6z"/>
<path d="M20908 12453 c7 -3 16 -2 19 1 4 3 -2 6 -13 5 -11 0 -14 -3 -6 -6z"/>
<path d="M28356 16507 c3 -10 9 -15 12 -12 3 3 0 11 -7 18 -10 9 -11 8 -5 -6z"/>
<path d="M30556 16462 c-3 -5 1 -9 9 -9 8 0 12 4 9 9 -3 4 -7 8 -9 8 -2 0 -6
-4 -9 -8z"/>
<path d="M28286 16407 c3 -10 9 -15 12 -12 3 3 0 11 -7 18 -10 9 -11 8 -5 -6z"/>
</g>
</svg>
